<?xml version="1.0" encoding="UTF-8"?>
<svg id="Calque_2" data-name="Calque 2" xmlns="http://www.w3.org/2000/svg" viewBox="0 0 40.5 35.5">
  <defs>
    <style>
      .cls-1 {
        fill: none;
        stroke: #76157b;
        stroke-width: 2px;
      }
    </style>
  </defs>
  <g id="Calque_1-2" data-name="Calque 1">
    <path class="cls-1" d="M30.61,4.62v.75h7.97c.52,0,.92,.41,.92,.89v3.83c0,2.11-1.37,4.42-3.98,6.27h0c-2.07,1.47-4.61,2.42-7.29,2.72l-.36,.04-.19,.31c-1.05,1.71-2.18,2.91-3.04,3.68-.43,.39-.8,.66-1.05,.84-.13,.09-.22,.15-.29,.2-.03,.02-.06,.04-.07,.04h-.01s0,0,0,0h0s-.37,.22-.37,.22v6.1h4.08c1.09,0,2.02,.32,2.67,.84,.63,.51,1.03,1.26,1.03,2.24v.82s0,.03-.02,.04c-.02,.02-.04,.03-.06,.03H9.97s-.05,0-.06-.03c-.02-.02-.02-.03-.02-.04v-.82c0-.98,.4-1.72,1.03-2.24,.65-.53,1.58-.84,2.67-.84h4.08v-6.1l-.37-.22h0s0,0,0,0h0s-.01,0-.01,0c-.01,0-.04-.02-.07-.04-.06-.04-.16-.11-.29-.2-.25-.18-.62-.46-1.05-.84-.86-.77-2-1.97-3.04-3.68l-.19-.31-.36-.04c-2.67-.3-5.21-1.24-7.29-2.72h0c-2.62-1.85-3.98-4.16-3.98-6.27v-3.83c0-.48,.4-.89,.92-.89h7.97V1.89c0-.48,.4-.89,.92-.89H29.69c.52,0,.92,.41,.92,.89v2.73ZM6.71,14.04h0c.93,.66,1.98,1.18,3.09,1.56l1.35,.46-.39-1.38c-.47-1.65-.79-3.54-.86-5.71l-.02-.73H3.94v1.84c0,.61,.28,1.29,.72,1.94,.46,.67,1.14,1.36,2.05,2.01Zm27.08,0h0c.66-.47,1.33-1.08,1.84-1.73,.49-.63,.93-1.41,.93-2.22v-1.84h-5.94l-.02,.73c-.07,2.17-.39,4.06-.86,5.71l-.39,1.38,1.35-.46c1.11-.38,2.16-.9,3.1-1.56Z"/>
  </g>
</svg>