<?xml version="1.0" encoding="UTF-8"?>
<svg id="Calque_2" data-name="Calque 2" xmlns="http://www.w3.org/2000/svg" xmlns:xlink="http://www.w3.org/1999/xlink" viewBox="0 0 128 128">
  <defs>
    <style>
      .cls-1 {
        fill: none;
      }

      .cls-2 {
        clip-path: url(#clippath);
      }

      .cls-3 {
        fill: #80017e;
      }

      .cls-4 {
        fill: #d7cde3;
      }
    </style>
    <clipPath id="clippath">
      <rect class="cls-1" x="21.45" y="47.65" width="95.1" height="32.7"/>
    </clipPath>
  </defs>
  <g id="Calque_1-2" data-name="Calque 1">
    <rect class="cls-4" width="128" height="128"/>
    <g class="cls-2">
      <g>
        <path class="cls-3" d="M38.22,54.12h4.2v20.89h-4.73v-10.96l-4.01,7.49h-3.49l-3.98-7.32-.03,10.78h-4.73v-20.89h4.29l6.25,11.88,6.23-11.88Z"/>
        <path class="cls-3" d="M53.99,60.46h5.14l-8.86,19.89h-5.32l2.92-6.34-5.94-13.54h5.5l3.18,8.21,3.37-8.21h0Z"/>
        <path class="cls-3" d="M74.44,75.01l-1.86-4.33h-9.22l-1.86,4.33h-5.46l9.72-20.89h4.31l9.74,20.89h-5.37Zm-9.34-8.42h5.74l-2.87-6.7-2.87,6.7h0Z"/>
        <path class="cls-3" d="M78.86,75.01v-14.57h5.26v14.57h-5.26Zm-.12-21.87h5.5v4.76h-5.5v-4.76h0Z"/>
        <path class="cls-3" d="M100.72,54.12v20.89h-5.17v-1.98c-.42,.69-1.02,1.23-1.82,1.63-.79,.39-1.67,.59-2.64,.59-1.24,0-2.35-.32-3.32-.96-.97-.64-1.74-1.55-2.29-2.71-.55-1.17-.82-2.51-.82-4.01s.27-2.81,.81-3.95c.54-1.14,1.3-2.01,2.28-2.62,.97-.61,2.09-.92,3.35-.92,.93,0,1.78,.19,2.55,.56,.78,.37,1.39,.88,1.82,1.51v-8.02h5.26Zm-8.04,17.19c.93,0,1.64-.32,2.12-.95,.5-.63,.74-1.54,.74-2.73s-.25-2.06-.74-2.67c-.49-.62-1.2-.94-2.12-.94s-1.6,.31-2.1,.92c-.49,.61-.73,1.49-.73,2.63s.25,2.11,.75,2.76c.51,.65,1.2,.97,2.08,.97Z"/>
        <path class="cls-3" d="M110.46,47.65c-3.36,0-6.09,2.73-6.09,6.11s2.72,6.11,6.09,6.11,6.09-2.74,6.09-6.11-2.73-6.11-6.09-6.11Zm.75,6.86v2.48h-1.51v-2.47h-2.46s0-1.5,0-1.5h2.46v-2.49h1.51v2.47h2.46s0,1.5,0,1.5h-2.47Z"/>
      </g>
    </g>
  </g>
</svg>