<?xml version="1.0" encoding="UTF-8"?>
<svg id="Calque_2" data-name="Calque 2" xmlns="http://www.w3.org/2000/svg" viewBox="0 0 391.16 392.39">
  <defs>
    <style>
      .cls-1 {
        fill: #fefefe;
      }

      .cls-2 {
        fill: #76157b;
      }
    </style>
  </defs>
  <g id="Calque_2-2" data-name="Calque 2">
    <g id="Calque_1-2" data-name="Calque 1-2">
      <g>
        <path class="cls-1" d="M383.36,191.66c-6.25-8.02-12.26-16.28-19.02-23.86-14.19-15.92-22.57-33.95-27.43-55.04-11.37-49.37-42.24-83.75-89.38-101.71C209.53-3.42,169.64-2.39,130.69,6.7,41.06,27.61-15.04,117.2,3.56,207.29c5.62,27.23,17.71,51.35,34.17,73.51,7.76,10.44,11,22.35,11.01,35.24,0,16.46-.02,32.91,0,49.37,.03,17.78,9.17,26.91,27,26.94,10.11,.01,20.22,.02,30.33,.02,13.48,0,26.96-.01,40.44-.02,14.4,0,28.81,.04,43.22,.04,9.69,0,19.38-.02,29.07-.07,15.86-.08,25.29-9.61,25.46-25.4,.07-6.44,.21-12.9-.07-19.33-.14-3.36,.89-4.22,4.2-4.18,14.59,.18,29.19,.22,43.79,.04,25.41-.31,45.11-17.07,49.03-42.11,2.11-13.45,.38-27.09,.86-40.64,.17-4.86-2.11-11.31,.91-14.11,2.6-2.41,9-.88,13.71-.81,14.5,.2,24.77-6.95,30.95-19.33,6.06-12.13,4.05-24.07-4.29-34.79h0Zm-120.26-32.36c-12.82,1.97-25.75,.51-38.62,.92-2.16,.07-4.32,0-6.62,0,8.78,28.95-16.44,55.74-46.91,46.94,0,4.66,.07,9.21,0,13.76-.29,14.9-10.18,24.85-24.54,24.79-14.37-.07-24.05-10.03-24.33-25.01v-1.02c-.03-3.9,1.37-8.79-.47-11.43-1.94-2.79-6.47,.94-10.08,.84-18.58-.53-35.48-10.83-38.05-34.65-.35-3.29-1.42-4.89-4.41-6.37-13.88-6.84-22.1-22.21-19.83-36.32,2.86-17.76,13.78-29.15,30.85-31.72,3.85-.58,5.51-1.83,6.16-6.01,3.76-24.17,27.7-37.67,50.43-28.55,2.93,1.17,4.16,.84,6.13-1.66,13.94-17.72,42.22-17.98,56.49-.5,2.36,2.9,3.86,3.16,7.35,1.75,17.33-6.99,37.23,.88,45.63,17.85,1.35,2.73,2.71,3.89,5.87,4.26,19.59,2.29,31.37,13.31,34.37,31.67,3.05,18.62-10.69,37.57-29.41,40.45h0Z"/>
        <path class="cls-2" d="M383.36,191.66c-6.25-8.02-12.26-16.28-19.02-23.86-14.19-15.92-22.57-33.95-27.43-55.04-11.37-49.37-42.24-83.75-89.38-101.71C209.53-3.42,169.64-2.39,130.69,6.7,41.06,27.61-15.04,117.2,3.56,207.29c5.62,27.23,17.71,51.35,34.17,73.51,7.76,10.44,11,22.35,11.01,35.24,0,16.46-.02,32.91,0,49.37,.03,17.78,9.17,26.91,27,26.94,10.11,.01,20.22,.02,30.33,.02,13.48,0,26.96-.01,40.44-.01,14.4-.01,28.81,.03,43.22,.03,9.69,0,19.38-.02,29.07-.07,15.86-.08,25.29-9.61,25.46-25.4,.07-6.44,.21-12.9-.07-19.33-.14-3.36,.89-4.22,4.2-4.18,14.59,.18,29.19,.22,43.79,.04,25.41-.31,45.11-17.07,49.03-42.11,2.11-13.45,.38-27.09,.86-40.64,.17-4.86-2.11-11.31,.91-14.11,2.6-2.41,9-.88,13.71-.81,14.5,.2,24.77-6.95,30.95-19.33,6.06-12.13,4.05-24.07-4.29-34.79h0Zm-120.26-32.36c-12.82,1.97-25.75,.51-38.62,.92-2.16,.07-4.32,0-6.62,0,8.78,28.95-16.44,55.74-46.91,46.94,0,4.66,.07,9.21,0,13.76-.29,14.9-10.18,24.85-24.54,24.79-14.37-.07-24.05-10.03-24.33-25.01v-1.02c-.03-3.9,1.37-8.79-.47-11.43-1.94-2.79-6.47,.94-10.08,.84-18.58-.53-35.48-10.83-38.05-34.65-.35-3.29-1.42-4.89-4.41-6.37-13.88-6.84-22.1-22.21-19.83-36.32,2.86-17.76,13.78-29.15,30.85-31.72,3.85-.58,5.51-1.83,6.16-6.01,3.76-24.17,27.7-37.67,50.43-28.55,2.93,1.17,4.16,.84,6.13-1.66,13.94-17.72,42.22-17.98,56.49-.5,2.36,2.9,3.86,3.16,7.35,1.75,17.33-6.99,37.23,.88,45.63,17.85,1.35,2.73,2.71,3.89,5.87,4.26,19.59,2.29,31.37,13.31,34.37,31.67,3.05,18.62-10.69,37.57-29.41,40.45h0Z"/>
      </g>
    </g>
  </g>
</svg>