<?xml version="1.0" encoding="UTF-8"?>
<svg id="Calque_2" data-name="Calque 2" xmlns="http://www.w3.org/2000/svg" xmlns:xlink="http://www.w3.org/1999/xlink" viewBox="0 0 38 29">
  <defs>
    <style>
      .cls-1 {
        fill: none;
      }

      .cls-2 {
        clip-path: url(#clippath);
      }

      .cls-3 {
        fill: #76157b;
      }
    </style>
    <clipPath id="clippath">
      <rect class="cls-1" width="38" height="29"/>
    </clipPath>
  </defs>
  <g id="Calque_1-2" data-name="Calque 1">
    <g class="cls-2">
      <path class="cls-3" d="M36.46,11.7c-2.81,3.78-5.61,7.57-8.43,11.35-1.37,1.83-3.16,2.95-5.51,3.11-2.97,.2-5.26-.93-6.86-3.39-.37-.57-.6-1.21-.86-1.83-.03,.38-.02,.76-.04,1.13-.25,5.28-5.96,8.53-10.76,6.13C1.39,26.9,.05,24.69,.02,21.82-.02,16.97,.01,12.12,.01,7.28c0-.31,.04-.63,.08-.94C.47,3.31,2.73,.85,5.74,.18c3.09-.69,6.26,.61,7.93,3.25,.78,1.23,1.1,2.58,1.1,4.02,0,3.16,0,6.32,0,9.48,.33-.88,.76-1.67,1.3-2.41,2.18-2.95,4.34-5.92,6.54-8.86,.96-1.28,1.8-2.65,2.99-3.76,2.53-2.37,6.84-2.54,9.55-.38,3.22,2.57,3.77,6.84,1.3,10.17ZM2.13,21.74c.03,2.49,1.57,4.42,3.99,5.02,3.08,.77,6.19-1.43,6.37-4.56,.12-2.12,.12-4.25,.18-6.38,.01-.31-.13-.31-.36-.31-1.64,0-3.28,0-4.92,0s-3.28,0-4.92,0c-.28,0-.36,.07-.36,.35,.01,1.95,0,3.91,.01,5.86ZM12.58,7.03c-.07-2.38-1.62-4.22-3.98-4.81-2.88-.72-5.83,1.17-6.3,4.05-.2,1.23-.09,2.47-.14,3.7-.04,1.03,0,2.07-.04,3.1-.01,.34,.1,.39,.41,.39,1.62-.02,3.25,0,4.87,0s3.28,0,4.92,0c.24,0,.36-.01,.36-.31-.04-2.04-.04-4.08-.1-6.12Zm9.16,4.1c-.28-.2-.41-.23-.63,.08-1.22,1.74-2.57,3.39-3.71,5.18-2.03,3.17,.17,7.4,3.98,7.7,.2,.02,.41,.04,.61,.06,1.82-.05,3.22-.87,4.28-2.27,1.17-1.53,2.3-3.08,3.46-4.61,.17-.22,.16-.31-.08-.48-2.65-1.87-5.28-3.76-7.91-5.66ZM32.31,2.36c-2.23-.71-4.41-.18-6,1.87-1.22,1.56-2.35,3.18-3.53,4.77-.13,.18-.14,.27,.06,.41,2.69,1.91,5.37,3.83,8.05,5.76,.14,.1,.25,.18,.39-.02,1.27-1.77,2.66-3.46,3.86-5.28,.51-.77,.74-1.65,.74-2.13,0-2.68-1.41-4.69-3.56-5.38Z"/>
    </g>
  </g>
</svg>