<?xml version="1.0" encoding="UTF-8"?>
<svg id="Calque_2" data-name="Calque 2" xmlns="http://www.w3.org/2000/svg" viewBox="0 0 528.06 512.06">
  <defs>
    <style>
      .cls-1 {
        fill: #76157b;
      }
    </style>
  </defs>
  <g id="Calque_1-2" data-name="Calque 1">
    <path class="cls-1" d="M292.76,18c-5.3-11-16.5-18-28.8-18s-23.4,7-28.8,18l-64.3,132.3L27.26,171.5c-12,1.8-22,10.2-25.7,21.7s-.7,24.2,7.9,32.7l104.2,103.1-24.6,145.7c-2,12,3,24.2,12.9,31.3s23,8,33.8,2.3l128.3-68.5,128.3,68.5c10.8,5.7,23.9,4.9,33.8-2.3s14.9-19.3,12.9-31.3l-24.7-145.7,104.2-103.1c8.6-8.5,11.7-21.2,7.9-32.7s-13.7-19.9-25.7-21.7l-143.7-21.2L292.76,18Z"/>
  </g>
</svg>