<?xml version="1.0" encoding="UTF-8"?>
<svg id="Calque_2" data-name="Calque 2" xmlns="http://www.w3.org/2000/svg" xmlns:xlink="http://www.w3.org/1999/xlink" viewBox="0 0 31 33">
  <defs>
    <style>
      .cls-1 {
        fill: none;
      }

      .cls-2 {
        clip-path: url(#clippath);
      }

      .cls-3 {
        fill: #76157b;
      }
    </style>
    <clipPath id="clippath">
      <rect class="cls-1" width="31" height="33"/>
    </clipPath>
  </defs>
  <g id="Calque_1-2" data-name="Calque 1">
    <g class="cls-2">
      <g>
        <path class="cls-3" d="M.03,9.88c.02-2.48,2.02-4.06,4.45-3.61,.23,.04,.51,.28,.66,.12,.12-.13,.03-.46,.04-.71,.12-2.73,2.54-4.31,5.08-3.29,.29,.12,.33-.02,.41-.22C11.23,.86,12.51,0,13.95,0c1.45,0,2.76,.84,3.3,2.18,.12,.3,.23,.28,.49,.17,1.47-.65,3.38-.12,4.3,1.17,.51,.71,.7,1.53,.7,2.39,0,4.05,0,8.1,0,12.15v.38c.59-.55,1.2-1.09,1.78-1.66,.4-.39,.84-.73,1.35-.98,1.47-.71,3.4-.25,4.37,1.05,1.15,1.53,.98,3.55-.43,4.95-2.16,2.15-4.34,4.29-6.51,6.44-.73,.72-1.52,1.4-2.38,1.97-3.55,2.34-7.43,3.29-11.62,2.55C3.98,31.82,.12,27.22,.04,21.77c-.06-3.96-.03-7.93,0-11.89Zm2.06,11.67c.01,4.38,2.82,8.02,7.01,9.05,2.39,.59,4.78,.37,7.12-.35,2.18-.67,4.03-1.91,5.64-3.49,2.18-2.13,4.33-4.3,6.48-6.46,.97-.98,.68-2.35-.58-2.71-.66-.19-1.17,.1-1.62,.54-1.19,1.18-2.38,2.36-3.56,3.56-.37,.38-.77,.54-1.27,.34-.52-.2-.65-.63-.65-1.14,0-2.5,0-5.01,0-7.51s0-5.01,0-7.51c0-.62-.17-1.16-.75-1.49-1.15-.65-2.34,.1-2.34,1.49,0,3.08,0,6.15,0,9.23,0,.14,0,.29,0,.43-.07,.79-.82,1.21-1.53,.86-.33-.16-.46-.45-.51-.79-.02-.15-.01-.31-.01-.47V3.85c0-.63-.14-1.2-.74-1.54-1.06-.62-2.23,0-2.35,1.24-.02,.14,0,.29,0,.43,0,3.78,0,7.56,0,11.34,0,.96-.81,1.47-1.59,1.01-.42-.24-.47-.65-.47-1.08V6.02c0-.13,0-.26,0-.39-.09-1.24-1.32-1.89-2.38-1.25-.57,.34-.71,.9-.71,1.52,0,3.12,0,6.24,0,9.36,0,.43-.06,.83-.48,1.08-.77,.45-1.58-.05-1.59-.98-.01-1.76,0-3.52,0-5.28,0-.24-.02-.48-.09-.72-.18-.66-.78-1.11-1.47-1.11-.69,0-1.28,.46-1.46,1.12-.06,.22-.08,.45-.08,.68,0,3.84,0,7.67,0,11.51h0Z"/>
        <path class="cls-3" d="M6.75,19.77c1.37-1.72,3.74-1.88,5.36-.35,.23,.22,.34,.25,.6,.01,1.13-1.04,2.43-1.38,3.88-.79,1.4,.57,2.11,1.64,2.14,3.16,.02,.77-.24,1.61-.77,2.17-1.55,1.63-3.2,3.16-4.82,4.72-.49,.47-1.02,.43-1.52-.05-1.49-1.43-2.96-2.87-4.45-4.3-1.44-1.38-1.29-3.48-.43-4.57Zm1.93,3.17c1.16,1.13,2.33,2.25,3.49,3.38,.17,.17,.27,.23,.48,.02,1.18-1.16,2.39-2.31,3.58-3.47,.47-.46,.58-1.04,.32-1.61-.25-.55-.69-.82-1.37-.83-.33-.03-.67,.14-.96,.42-.31,.3-.61,.61-.92,.91-.61,.59-1.13,.59-1.74,0-.29-.28-.57-.56-.85-.85-.68-.71-1.64-.52-2.09-.09-.6,.58-.56,1.51,.08,2.13Z"/>
      </g>
    </g>
  </g>
</svg>